<?xml version="1.0" encoding="utf-8"?>
<svg version="1.1" xmlns:xlink="http://www.w3.org/1999/xlink" width="12px" height="12px" viewBox="288 54.5  12 12" xmlns="http://www.w3.org/2000/svg">
  <path d="M 288.5 56.5  A 1.5 1.5 0 0 1 290 55 L 298 55  A 1.5 1.5 0 0 1 299.5 56.5 L 299.5 64.5  A 1.5 1.5 0 0 1 298 66 L 290 66  A 1.5 1.5 0 0 1 288.5 64.5 L 288.5 56.5  Z " fill-rule="nonzero" fill="#ffffff" stroke="none" />
  <path d="M 288.5 56.5  A 1.5 1.5 0 0 1 290 55 L 298 55  A 1.5 1.5 0 0 1 299.5 56.5 L 299.5 64.5  A 1.5 1.5 0 0 1 298 66 L 290 66  A 1.5 1.5 0 0 1 288.5 64.5 L 288.5 56.5  Z " stroke-width="1" stroke="#465dfa" fill="none" />
  <path d="M 290.571428571429 60.5  L 293.142857142857 63.0714285714286  L 297.428571428571 57.0714285714286  " stroke-width="2.57142857142857" stroke="#465dfa" fill="none" />
</svg>