<?xml version="1.0" encoding="utf-8"?>
<svg version="1.1" xmlns:xlink="http://www.w3.org/1999/xlink" width="12px" height="12px" viewBox="442 25.5  12 12" xmlns="http://www.w3.org/2000/svg">
  <path d="M 442.5 27.5  A 1.5 1.5 0 0 1 444 26 L 452 26  A 1.5 1.5 0 0 1 453.5 27.5 L 453.5 35.5  A 1.5 1.5 0 0 1 452 37 L 444 37  A 1.5 1.5 0 0 1 442.5 35.5 L 442.5 27.5  Z " fill-rule="nonzero" fill="#ffffff" stroke="none" />
  <path d="M 442.5 27.5  A 1.5 1.5 0 0 1 444 26 L 452 26  A 1.5 1.5 0 0 1 453.5 27.5 L 453.5 35.5  A 1.5 1.5 0 0 1 452 37 L 444 37  A 1.5 1.5 0 0 1 442.5 35.5 L 442.5 27.5  Z " stroke-width="1" stroke="#465dfa" fill="none" />
  <path d="M 444.571428571429 31.5  L 447.142857142857 34.0714285714286  L 451.428571428571 28.0714285714286  " stroke-width="2.57142857142857" stroke="#465dfa" fill="none" />
</svg>