<?xml version="1.0" encoding="utf-8"?>
<svg version="1.1" xmlns:xlink="http://www.w3.org/1999/xlink" width="173px" height="57px" xmlns="http://www.w3.org/2000/svg">
  <defs>
    <filter x="190px" y="310px" width="173px" height="57px" filterUnits="userSpaceOnUse" id="filter21">
      <feOffset dx="5" dy="5" in="SourceAlpha" result="shadowOffsetInner" />
      <feGaussianBlur stdDeviation="2.5" in="shadowOffsetInner" result="shadowGaussian" />
      <feComposite in2="shadowGaussian" operator="atop" in="SourceAlpha" result="shadowComposite" />
      <feColorMatrix type="matrix" values="0 0 0 0 1  0 0 0 0 1  0 0 0 0 1  0 0 0 0.349019607843137 0  " in="shadowComposite" />
    </filter>
    <g id="widget22">
      <path d="M 190.5 316  A 5.5 5.5 0 0 1 196 310.5 L 347 310.5  A 5.5 5.5 0 0 1 352.5 316 L 352.5 351  A 5.5 5.5 0 0 1 347 356.5 L 196 356.5  A 5.5 5.5 0 0 1 190.5 351 L 190.5 316  Z " fill-rule="nonzero" fill="#ffffff" stroke="none" fill-opacity="0.109803921568627" />
      <path d="M 190.5 316  A 5.5 5.5 0 0 1 196 310.5 L 347 310.5  A 5.5 5.5 0 0 1 352.5 316 L 352.5 351  A 5.5 5.5 0 0 1 347 356.5 L 196 356.5  A 5.5 5.5 0 0 1 190.5 351 L 190.5 316  Z " stroke-width="1" stroke="#ffffff" fill="none" />
    </g>
  </defs>
  <g transform="matrix(1 0 0 1 -190 -310 )">
    <use xlink:href="#widget22" filter="url(#filter21)" />
    <use xlink:href="#widget22" />
  </g>
</svg>