<?xml version="1.0" encoding="utf-8"?>
<svg version="1.1" xmlns:xlink="http://www.w3.org/1999/xlink" width="700px" height="49px" xmlns="http://www.w3.org/2000/svg">
  <defs>
    <mask fill="white" id="clip36">
      <path d="M 0 49  L 0 6  C 0 2.63999999999999  2.63999999999999 0  6 0  L 694 0  C 697.36 0  700 2.63999999999999  700 6  L 700 49  L 92.4390243902441 49  L 0 49  Z " fill-rule="evenodd" />
    </mask>
  </defs>
  <g transform="matrix(1 0 0 1 -610 -196 )">
    <path d="M 0 49  L 0 6  C 0 2.63999999999999  2.63999999999999 0  6 0  L 694 0  C 697.36 0  700 2.63999999999999  700 6  L 700 49  L 92.4390243902441 49  L 0 49  Z " fill-rule="nonzero" fill="#ffffff" stroke="none" transform="matrix(1 0 0 1 610 196 )" />
    <path d="M 0 49  L 0 6  C 0 2.63999999999999  2.63999999999999 0  6 0  L 694 0  C 697.36 0  700 2.63999999999999  700 6  L 700 49  L 92.4390243902441 49  L 0 49  Z " stroke-width="2" stroke="#d7d7d7" fill="none" transform="matrix(1 0 0 1 610 196 )" mask="url(#clip36)" />
  </g>
</svg>