<?xml version="1.0" encoding="utf-8"?>
<svg version="1.1" xmlns:xlink="http://www.w3.org/1999/xlink" width="12px" height="12px" viewBox="133 25  12 12" xmlns="http://www.w3.org/2000/svg">
  <path d="M 133.5 27  A 1.5 1.5 0 0 1 135 25.5 L 143 25.5  A 1.5 1.5 0 0 1 144.5 27 L 144.5 35  A 1.5 1.5 0 0 1 143 36.5 L 135 36.5  A 1.5 1.5 0 0 1 133.5 35 L 133.5 27  Z " fill-rule="nonzero" fill="#f0f0f0" stroke="none" />
  <path d="M 133.5 27  A 1.5 1.5 0 0 1 135 25.5 L 143 25.5  A 1.5 1.5 0 0 1 144.5 27 L 144.5 35  A 1.5 1.5 0 0 1 143 36.5 L 135 36.5  A 1.5 1.5 0 0 1 133.5 35 L 133.5 27  Z " stroke-width="1" stroke="#c0c4cc" fill="none" />
</svg>