<?xml version="1.0" encoding="utf-8"?>
<svg version="1.1" xmlns:xlink="http://www.w3.org/1999/xlink" width="12px" height="12px" viewBox="288 113.5  12 12" xmlns="http://www.w3.org/2000/svg">
  <path d="M 288.5 115.5  A 1.5 1.5 0 0 1 290 114 L 298 114  A 1.5 1.5 0 0 1 299.5 115.5 L 299.5 123.5  A 1.5 1.5 0 0 1 298 125 L 290 125  A 1.5 1.5 0 0 1 288.5 123.5 L 288.5 115.5  Z " fill-rule="nonzero" fill="#ffffff" stroke="none" />
  <path d="M 288.5 115.5  A 1.5 1.5 0 0 1 290 114 L 298 114  A 1.5 1.5 0 0 1 299.5 115.5 L 299.5 123.5  A 1.5 1.5 0 0 1 298 125 L 290 125  A 1.5 1.5 0 0 1 288.5 123.5 L 288.5 115.5  Z " stroke-width="1" stroke="#c0c4cc" fill="none" />
</svg>