<?xml version="1.0" encoding="utf-8"?>
<svg version="1.1" xmlns:xlink="http://www.w3.org/1999/xlink" width="12px" height="12px" viewBox="133 84.5  12 12" xmlns="http://www.w3.org/2000/svg">
  <path d="M 133.5 86.5  A 1.5 1.5 0 0 1 135 85 L 143 85  A 1.5 1.5 0 0 1 144.5 86.5 L 144.5 94.5  A 1.5 1.5 0 0 1 143 96 L 135 96  A 1.5 1.5 0 0 1 133.5 94.5 L 133.5 86.5  Z " fill-rule="nonzero" fill="#ffffff" stroke="none" />
  <path d="M 133.5 86.5  A 1.5 1.5 0 0 1 135 85 L 143 85  A 1.5 1.5 0 0 1 144.5 86.5 L 144.5 94.5  A 1.5 1.5 0 0 1 143 96 L 135 96  A 1.5 1.5 0 0 1 133.5 94.5 L 133.5 86.5  Z " stroke-width="1" stroke="#c0c4cc" fill="none" />
</svg>