<?xml version="1.0" encoding="utf-8"?>
<svg version="1.1" xmlns:xlink="http://www.w3.org/1999/xlink" width="12px" height="12px" viewBox="288 84.5  12 12" xmlns="http://www.w3.org/2000/svg">
  <path d="M 288.5 86.5  A 1.5 1.5 0 0 1 290 85 L 298 85  A 1.5 1.5 0 0 1 299.5 86.5 L 299.5 94.5  A 1.5 1.5 0 0 1 298 96 L 290 96  A 1.5 1.5 0 0 1 288.5 94.5 L 288.5 86.5  Z " fill-rule="nonzero" fill="#f0f0f0" stroke="none" />
  <path d="M 288.5 86.5  A 1.5 1.5 0 0 1 290 85 L 298 85  A 1.5 1.5 0 0 1 299.5 86.5 L 299.5 94.5  A 1.5 1.5 0 0 1 298 96 L 290 96  A 1.5 1.5 0 0 1 288.5 94.5 L 288.5 86.5  Z " stroke-width="1" stroke="#c0c4cc" fill="none" />
</svg>