<?xml version="1.0" encoding="utf-8"?>
<svg version="1.1" xmlns:xlink="http://www.w3.org/1999/xlink" width="18px" height="18px" xmlns="http://www.w3.org/2000/svg">
  <g transform="matrix(1 0 0 1 -1689 -23 )">
    <path d="M 11.6209531 12.6816115  C 10.3953452000001 13.6740932  8.83428099999992 14.268631  7.13435410000011 14.268631  C 3.19415903000004 14.268631  0 11.0744891  0 7.1343155  C 0 3.19414186  3.19415903000004 0  7.13435410000011 0  C 11.0745492000001 0  14.2687082 3.19414186  14.2687082 7.1343155  C 14.2687082 8.8342659  13.6741446999999 10.3953495  12.6816229999999 11.620961  L 17.9697733 16.9090834  L 16.9091163000001 17.9697475  L 11.6209531 12.6816115  Z M 1.5 7.1343155  C 1.5 10.2460542  4.02257860000009 12.768631  7.13435410000011 12.768631  C 10.2461292999999 12.768631  12.7687082 10.2460542  12.7687082 7.1343155  C 12.7687082 4.02257645  10.2461292999999 1.5  7.13435410000011 1.5  C 4.02257860000009 1.5  1.5 4.02257645  1.5 7.1343155  Z " fill-rule="nonzero" fill="#000000" stroke="none" fill-opacity="0.898039215686275" transform="matrix(1 0 0 1 1689 23 )" />
  </g>
</svg>